<svg xmlns="http://www.w3.org/2000/svg" width="390" height="87" viewBox="0 0 390 87" fill="none">
  <path d="M-346 5C-328 23.7044 -319.253 21.2249 -303.8 24.172C-299.338 25.023 -294.12 24.3444 -289.568 24.3444C-285.202 24.3444 -279.579 25.2077 -275.38 23.9566C-271.215 22.7154 -266.424 21.4169 -262.142 20.6392C-247.611 17.9999 -232.961 19.4439 -219.264 25.5076C-210.648 29.3224 -202.533 34.0682 -193.827 37.7002C-183.185 42.1397 -172.599 45.9575 -161.792 49.9789C-147.991 55.1145 -132.2 56.8645 -117.469 57.6908C-97.3383 58.8199 -78.0707 57.3428 -58.0091 55.9675C-18.898 53.2862 17.1404 39.1876 52.5967 24.3444C79.4255 13.1129 108.159 5.15054 137.765 7.67115C151.087 8.80534 164.944 12.6591 176.215 19.6914C188.528 27.3738 200.345 34.1009 215.117 36.3646C230.52 38.7251 244.021 36.4457 258.989 33.3057C269.679 31.063 284.844 27.6505 295.225 32.8749C300.61 35.5849 302.718 43.3878 304.532 48.3848C307.237 55.8354 307.943 64.1294 304.532 71.5636C300.732 79.8455 294.026 84.5362 284.742 80.568C276.461 77.0279 275.924 68.267 278.507 61.1375C281.298 53.4339 290.383 46.5082 297.258 42.1378C307.057 35.9086 316.874 29.5699 328.931 28.3942C355.208 25.8316 379.173 35.8799 404.43 40.9745C411.681 42.4371 419.126 43.8146 426.524 44.335C435.957 44.9986 445.242 42.7156 454.356 40.6298C466.571 37.5103 523.822 11.3689 532 8.87834" stroke="#FF66C4" stroke-width="10" stroke-linecap="round"/>
</svg>
