<svg xmlns="http://www.w3.org/2000/svg" width="87" height="85" viewBox="0 0 87 85" fill="none">
  <path d="M49.7965 36.0742C51.4453 37.0187 53.0536 38.0097 54.759 38.8904C55.6521 39.3498 56.0087 39.9298 56.1294 40.7508C57.2336 48.0491 58.3715 55.3388 59.5201 62.6314C59.603 63.1642 59.8335 63.6799 59.9904 64.2012L66.1326 59.6353C67.1182 56.1491 68.1003 52.6599 69.0965 49.1766C70.423 44.5535 71.7568 39.9305 73.1126 35.3075C73.2567 34.8132 73.1469 34.4695 72.7613 34.1018C70.4257 31.9011 68.1207 29.6831 65.8079 27.4708C64.5637 26.2801 63.3233 25.0864 62.0825 23.8986C60.6472 23.4115 60.3362 23.0265 60.4506 21.8891C60.0372 21.6347 59.5848 21.4094 59.2187 21.1145C58.3395 20.4049 57.5036 19.6576 56.655 18.9306C55.9427 19.0567 55.9681 19.534 55.8304 19.909C55.057 22.0107 54.305 24.1183 53.5315 26.22C53.3885 26.6153 53.1947 27.0047 53.0229 27.3942C52.5166 28.7575 52.003 30.1208 51.4966 31.4841C50.9322 33.0161 50.3677 34.5481 49.8033 36.08L49.7965 36.0742ZM61.3873 36.3134C61.0081 35.3084 60.714 34.551 60.4462 33.7849C59.0852 29.9545 57.7277 26.127 56.3707 22.2937C56.3089 22.116 56.1727 21.912 56.2435 21.7667C56.3635 21.5138 56.5611 21.2088 56.8355 21.0758C57.2122 20.8993 57.5555 21.0749 57.7077 21.3925C57.8074 21.5965 57.8735 21.8091 57.9508 22.0188C59.4974 26.3764 61.0367 30.734 62.5906 35.0917C62.7501 35.5402 62.9767 35.9715 63.2004 36.4814C63.7954 36.3172 64.288 36.1964 64.7685 36.0464C66.323 35.5561 67.8678 35.0512 69.4218 34.5667C70.3716 34.2697 70.791 34.3232 70.9836 34.7253C71.1728 35.1245 70.9105 35.374 69.9183 35.6972C68.107 36.2857 66.2917 36.8771 64.4741 37.454C63.8995 37.6357 63.5486 37.853 63.5325 38.432C63.4242 42.2204 63.25 46.0087 63.1124 49.7971C63.0412 51.764 63.021 53.731 62.9531 55.7009C62.9162 56.7425 62.8608 57.787 62.7182 58.8255C62.6814 59.0873 62.3025 59.5052 62.0248 59.5481C61.4874 59.6368 61.2602 59.255 61.2025 58.8561C61.186 58.7484 61.1993 58.635 61.2013 58.5244C61.3109 55.6293 61.4137 52.7284 61.5305 49.8333C61.6723 46.3418 61.8252 42.8474 61.9669 39.3559C61.9779 39.0969 61.923 38.8378 61.934 38.5788C61.9559 38.0173 61.6409 37.7225 60.9595 37.5692C58.3944 37.0004 55.8436 36.3938 53.2883 35.7959C52.98 35.7252 52.6059 35.6979 52.396 35.5431C52.1691 35.3737 51.9346 35.0355 52.0103 34.832C52.0806 34.6489 52.5601 34.4669 52.8744 34.4242C53.1701 34.3842 53.4984 34.5219 53.8067 34.5926C56.2271 35.1436 58.6508 35.6975 61.3902 36.3221L61.3873 36.3134Z" fill="#F7E98E"/>
  <path d="M56.234 67.7276C55.273 66.7218 54.3077 65.7248 53.3506 64.7161C52.6434 63.9654 51.963 63.2002 51.2558 62.4496C49.4913 60.573 47.719 58.7022 45.9471 56.8256C45.432 56.2773 44.8977 55.7377 44.3977 55.1836C43.9549 54.691 43.3473 54.5403 42.5838 54.5821C40.8984 54.6743 39.2061 54.7605 37.5202 54.8147C37.0709 54.831 36.6247 54.7246 36.1775 54.6737C35.2535 54.7912 34.3279 54.9701 33.4059 55.0204C30.7769 55.1569 28.1455 55.2348 25.5151 55.345C25.2425 55.356 24.9757 55.4284 24.5181 55.5003C24.6472 55.9687 24.7065 56.3959 24.8788 56.7883C26.4266 60.3111 27.9862 63.8251 29.5491 67.3421C29.7156 67.717 29.9158 68.0831 30.0887 68.4258C36.6371 69.4286 43.1024 70.4165 49.5638 71.4074C50.0169 71.4758 50.4586 71.5911 50.9024 71.6829L53.0299 70.1002C52.6569 69.7804 52.2952 69.4577 51.9025 69.1524C49.3865 67.2212 46.8748 65.2813 44.3352 63.3676C43.59 62.804 42.7621 62.3075 41.9387 61.7584C41.1199 62.236 40.3824 62.664 39.6445 63.0979C38.0946 64.0153 36.5546 64.9473 34.9979 65.8587C34.6889 66.0393 34.3261 66.205 33.9693 66.2568C33.6903 66.2999 33.1829 66.2225 33.1283 66.0879C33.0302 65.8594 33.1641 65.5351 33.2784 65.2692C33.3246 65.1582 33.583 65.0975 33.7373 65.0101C35.5814 63.9561 37.4323 62.9079 39.2627 61.8421C39.6256 61.6325 39.9278 61.3583 40.3863 61.0173C39.7312 60.8196 39.3135 60.681 38.8825 60.5687C35.5578 59.6884 32.2321 58.8198 28.9074 57.9395C28.559 57.8479 28.1412 57.7971 27.9001 57.6093C27.687 57.4391 27.5616 57.0994 27.6049 56.848C27.6704 56.465 28.1173 56.434 28.5018 56.4876C28.8174 56.5323 29.1295 56.618 29.4348 56.6978C32.9792 57.6284 36.5231 58.5648 40.0669 59.5013C40.3292 59.5692 40.5909 59.643 40.8614 59.6993C41.3663 59.8059 41.6807 59.6049 41.8412 59.228C41.9153 59.0469 41.9311 58.8597 41.9837 58.6727C42.1581 58.0442 42.3218 57.4129 42.5104 56.7903C42.6425 56.3578 42.918 55.9227 43.5424 56.0062C44.1921 56.0927 44.0981 56.5956 44.0482 57.0108C44.0383 57.0839 44.0246 57.1599 44.0074 57.233C43.7774 58.0836 43.6051 58.946 43.2886 59.7788C43.0765 60.3311 43.1769 60.7057 43.6639 61.0668C44.7934 61.9033 45.9028 62.7603 47.0166 63.6085C49.4481 65.4547 51.8797 67.3009 54.3112 69.147L56.2271 67.7217L56.234 67.7276Z" fill="#A39ECE"/>
  <path d="M54.3141 69.2492C51.8752 67.3959 49.4362 65.5426 46.9973 63.6892C45.8801 62.8377 44.7673 61.9774 43.6343 61.1376C43.1458 60.7751 43.0453 60.3989 43.2582 59.8442C43.5761 59.0078 43.7493 58.1417 43.9804 57.2874C44.0016 57.2111 44.0115 57.1377 44.0214 57.0643C44.0756 56.6444 44.1662 56.1423 43.5143 56.0556C42.8879 55.9719 42.6113 56.4089 42.4786 56.8433C42.2852 57.4715 42.1207 58.1056 41.9494 58.7338C41.9005 58.9187 41.884 59.1125 41.8062 59.2915C41.6485 59.673 41.3335 59.8691 40.823 59.7651C40.5516 59.7086 40.2924 59.6375 40.0259 59.5664C36.4705 58.6269 32.9147 57.6933 29.3593 56.7538C29.053 56.6738 28.7439 56.585 28.4233 56.5431C28.0375 56.4893 27.5857 56.5176 27.5232 56.9052C27.4797 57.1577 27.6053 57.4988 27.8192 57.6696C28.057 57.8611 28.4802 57.9091 28.8296 58.001C32.1617 58.8812 35.5016 59.7556 38.8371 60.6387C39.2695 60.7513 39.6886 60.8904 40.3457 61.0887C39.8896 61.4284 39.5823 61.7067 39.2181 61.9174C37.3812 62.9882 35.5237 64.0413 33.673 65.1003C33.5143 65.191 33.2623 65.2521 33.2125 65.3606C33.0977 65.6277 32.9632 65.9534 33.0615 66.1827C33.1237 66.318 33.6254 66.3956 33.9053 66.3521C34.2633 66.3001 34.6313 66.1306 34.9375 65.9521C36.5032 65.0393 38.0488 64.103 39.6007 63.1784C40.3379 62.7395 41.0814 62.3124 41.903 61.8326C42.7256 62.3809 43.5561 62.8793 44.307 63.4479C46.8543 65.3691 49.3702 67.3137 51.8974 69.2553C52.2917 69.5559 52.6502 69.8886 53.0283 70.2068L54.3102 69.2522L54.3141 69.2492Z" fill="white"/>
  <path d="M45.2059 46.305C45.9909 47.6623 46.7327 48.9192 47.4519 50.182C49.526 53.8228 51.5962 57.4666 53.6703 61.1074C54.0334 61.7418 54.4116 62.3703 54.7978 62.9929C54.9181 63.1847 55.0569 63.4178 55.2782 63.5067C55.5241 63.6103 55.905 63.6465 56.1591 63.5674C56.326 63.5147 56.4881 63.1732 56.4549 62.9993C56.3823 62.6396 56.1979 62.2915 56.0085 61.9581C54.2204 58.8159 52.4244 55.6795 50.6284 52.5432C49.5393 50.6402 48.431 48.7459 47.3533 46.84C46.6449 45.5801 46.6332 45.5448 48.0563 44.5723C50.1226 43.1592 52.2439 41.7933 54.3235 40.3978C54.5703 40.2304 54.8188 40.001 54.9201 39.7655C54.9977 39.5918 54.9235 39.294 54.7677 39.1728C54.6085 39.0487 54.2542 39.0038 54.0174 39.0534C53.7618 39.1059 53.5282 39.2911 53.3084 39.4438C51.213 40.8952 49.1245 42.3526 47.0252 43.8069C46.8094 43.9567 46.566 44.0829 46.1886 44.3091C45.7418 43.9633 45.2286 43.6617 44.8705 43.2719C43.8779 42.1854 42.963 41.0519 41.998 39.9448C40.9824 38.7815 39.9396 37.633 38.9126 36.4727C37.4648 34.8371 36.0243 33.2015 34.5764 31.5659C33.5298 30.3761 32.4798 29.1833 31.4332 27.9935C31.1473 27.6658 30.8852 27.3205 30.5836 27.0045C30.3669 26.7742 30.1475 26.4908 29.8391 26.3841C29.5523 26.2833 29.1034 26.3089 28.8089 26.4291C28.671 26.4878 28.6051 26.9562 28.7343 27.1303C29.2674 27.8475 29.8735 28.5325 30.4722 29.2174C31.9627 30.915 33.4646 32.6097 34.9631 34.3014C36.411 35.937 37.8594 37.5668 39.2993 39.2083C40.8169 40.9354 42.3266 42.6684 43.825 44.4043C43.9694 44.5726 44.0359 44.7879 44.2238 45.1389C42.9066 45.4751 41.6938 45.7997 40.4687 46.0947C37.8906 46.7141 35.3076 47.304 32.729 47.9292C31.7752 48.16 31.4252 48.4982 31.5642 48.9022C31.6939 49.2856 32.1879 49.3809 33.1603 49.1472C35.7872 48.5191 38.4013 47.8674 41.0282 47.2393C42.3586 46.9209 43.7008 46.6378 45.1872 46.3079L45.2059 46.305Z" fill="white"/>
  <path d="M61.3069 36.3367C58.5631 35.7111 56.1354 35.1564 53.7111 34.6045C53.4023 34.5337 53.0769 34.3987 52.7773 34.4358C52.4625 34.4787 51.986 34.6581 51.9117 34.8445C51.8359 35.0483 52.0674 35.3842 52.298 35.5569C52.5077 35.7178 52.8829 35.7392 53.1918 35.81C55.7512 36.4089 58.3062 37.0165 60.8754 37.5862C61.5619 37.7368 61.8734 38.035 61.8514 38.5976C61.8405 38.857 61.8954 39.1166 61.8844 39.3761C61.7421 42.874 61.5887 46.3749 61.4464 49.8729C61.3291 52.7733 61.2225 55.6766 61.1159 58.58C61.1139 58.6907 61.1006 58.8044 61.1171 58.9123C61.1748 59.3119 61.4023 59.6944 61.9407 59.6055C62.2154 59.5596 62.595 59.1409 62.6352 58.8815C62.7782 57.8411 62.8338 56.7947 62.8708 55.7511C62.9424 53.7806 62.9628 51.8099 63.0309 49.8364C63.169 46.0411 63.3438 42.2458 63.4526 38.4504C63.4688 37.8703 63.8203 37.6526 64.3958 37.4706C66.2165 36.8925 68.0309 36.3028 69.8492 35.7101C70.8391 35.3893 71.1057 35.1364 70.9163 34.7365C70.7234 34.3336 70.3033 34.28 69.352 34.5776C67.7953 35.0631 66.2441 35.5719 64.6909 36.0604C64.2096 36.2106 63.7161 36.3317 63.1201 36.4962C62.8961 35.9854 62.6691 35.5534 62.5095 35.104C60.9568 30.7413 59.4119 26.3728 57.8631 22.0073C57.7896 21.7943 57.7195 21.5842 57.6197 21.3798C57.4672 21.0616 57.1234 20.8858 56.746 21.0626C56.4716 21.1901 56.2737 21.4956 56.1529 21.7548C56.0821 21.9003 56.218 22.1106 56.2803 22.2828C57.6359 26.1202 58.9987 29.9575 60.3616 33.7949C60.6337 34.5595 60.9316 35.3212 61.304 36.328L61.3069 36.3367Z" fill="white"/>
  <path d="M28.4942 45.3567C28.6841 46.7218 28.8439 48.0928 29.09 49.4493C29.1577 49.8238 29.408 50.2222 29.7289 50.4852C31.1154 51.6318 32.5616 52.7283 33.9756 53.8543C34.363 54.1617 34.7187 54.4926 35.0942 54.8087C35.544 54.8598 35.9893 54.9639 36.4447 54.9501C38.1406 54.8946 39.843 54.8068 41.5385 54.713C42.2991 54.6704 42.9176 54.822 43.3626 55.3181C43.8686 55.8792 44.3982 56.4227 44.92 56.972C46.6974 58.8593 48.4822 60.7465 50.2556 62.6367C50.9665 63.3928 51.6503 64.1635 52.3611 64.9196C53.3157 65.9356 54.2894 66.9427 55.2592 67.9528L60.6146 63.961C60.4532 63.4301 60.2243 62.9108 60.1411 62.3712C58.9918 54.9879 57.8465 47.6017 56.7386 40.2096C56.6141 39.3751 56.2505 38.7907 55.3559 38.3261C53.6337 37.4353 52.0097 36.4327 50.3447 35.4771C49.4159 34.9387 48.491 34.3974 47.5656 33.862C47.2524 33.8967 46.7958 34.0549 46.6538 33.9456C46.0432 33.4845 45.1212 33.2556 44.8745 32.5123C41.1329 30.4058 37.3953 28.2964 33.6497 26.1928C31.9267 25.2254 30.1997 24.2609 28.4762 23.2993C28.099 23.0892 27.7569 22.8144 27.3348 22.6986C26.9417 22.5887 26.357 22.5167 26.0515 22.6782C25.7421 22.8426 25.5734 23.3051 25.5186 23.6439C25.4578 24.0093 25.592 24.384 25.6415 24.7555C26.4376 30.4373 27.2337 36.119 28.0224 41.8008C28.0884 42.2814 28.0875 42.7678 28.1201 43.2513C28.2522 43.9531 28.3808 44.6519 28.5129 45.3538L28.4942 45.3567ZM45.2281 46.2727C43.7414 46.6027 42.3989 46.8858 41.0683 47.2044C38.4409 47.8327 35.8263 48.4846 33.1989 49.1129C32.2302 49.3437 31.7323 49.2513 31.6025 48.8679C31.4635 48.4638 31.8136 48.1255 32.7676 47.8946C35.3432 47.2662 37.9267 46.6761 40.5088 46.0595C41.7301 45.7673 42.9431 45.4426 44.2645 45.1034C44.0766 44.7522 44.0135 44.5399 43.8657 44.3686C42.3636 42.6293 40.8532 40.9018 39.3394 39.1714C37.9026 37.5324 36.4506 35.8994 35.0025 34.2634C33.5078 32.5683 32.0017 30.8762 30.5109 29.1782C29.9121 28.4931 29.306 27.808 28.7728 27.0906C28.6471 26.9194 28.7095 26.4479 28.8474 26.3892C29.1381 26.2719 29.591 26.2434 29.8778 26.3442C30.1897 26.4539 30.4057 26.7344 30.6224 26.9647C30.924 27.2808 31.1863 27.6262 31.4721 27.954C32.5149 29.147 33.5651 30.34 34.6158 31.5271C36.06 33.1661 37.5007 34.8021 38.9527 36.4351C39.9798 37.5957 41.0227 38.7445 42.0385 39.908C43.0002 41.0124 43.9225 42.1462 44.9114 43.2359C45.2656 43.6287 45.7828 43.9275 46.2297 44.2733C46.6071 44.0471 46.8506 43.9208 47.0664 43.771C49.1622 42.3192 51.2512 40.8614 53.3509 39.4067C53.5707 39.2539 53.8044 39.0687 54.06 39.0161C54.2969 38.9665 54.6546 39.0144 54.8105 39.1356C54.9663 39.2568 55.0371 39.5517 54.9629 39.7284C54.8616 39.964 54.617 40.1904 54.3661 40.3609C52.2822 41.7597 50.1644 43.123 48.0978 44.5365C46.6703 45.5122 46.6821 45.5476 47.3945 46.8048C48.4724 48.7112 49.5808 50.6059 50.67 52.5094C52.4662 55.6465 54.2625 58.7836 56.0508 61.9265C56.2402 62.26 56.4212 62.6052 56.4973 62.968C56.5339 63.1449 56.3683 63.4835 56.2014 63.5362C55.9433 63.6182 55.5663 63.5791 55.3203 63.4755C55.1029 63.3836 54.9601 63.1534 54.8399 62.9616C54.4463 62.3388 54.0753 61.7102 53.7122 61.0757C51.6379 57.434 49.5674 53.7893 47.493 50.1476C46.7703 48.8816 46.0318 47.6273 45.2468 46.2698L45.2281 46.2727Z" fill="#97D8E7"/>
</svg>
