<svg xmlns="http://www.w3.org/2000/svg" width="390" height="76" viewBox="0 0 390 76" fill="none">
  <path d="M-90 52.9703C-89.823 51.5579 -85.9157 50.0003 -84.891 49.4218C-78.1547 45.6191 -71.1737 42.256 -63.6795 40.2776C-50.692 36.849 -37.9243 38.7593 -24.8602 39.8682C-6.43871 41.4318 10.9207 49.8318 27.8264 56.7008C37.4039 60.5922 45.0502 65.3625 55.5154 66.7093C72.53 68.8989 90.5731 63.6279 101.953 50.5136C111.462 39.5551 120.212 29.6421 114.908 14.5284C111.987 6.20502 101.859 3.37024 94.0154 5.88461C86.0523 8.4373 80.9441 15.275 79.92 23.4451C78.1966 37.1955 83.9903 44.7919 93.4224 54.1986C106.135 66.8767 123.995 70.7511 141.639 70.9857C162.501 71.2631 181.891 67.4838 201.852 61.796C228.269 54.2685 254.449 48.0507 281.863 45.2364C315.518 41.7812 345.574 52.4737 377.52 61.1136C389.566 64.3717 401.804 67.0188 414.332 66.8913C424.356 66.7893 435.732 64.1296 445.351 61.3411C453.982 58.8387 461.442 55.1404 469.527 51.3325C477.976 47.3534 488.903 44.7995 498.083 43.1437C522.853 38.676 551.143 40.4293 574.627 49.6948C584.341 53.5272 593.657 57.9559 603 62.6149" stroke="#FF66C4" stroke-width="10" stroke-linecap="round"/>
</svg>
