<svg xmlns="http://www.w3.org/2000/svg" width="86" height="68" viewBox="0 0 86 68" fill="none">
  <path d="M52.1242 27.692C51.2536 27.8556 50.415 27.5284 49.4996 27.6799C47.0286 28.0858 45.1786 29.8733 45.0698 32.2425C45.0506 32.6182 45.0698 32.9999 45.0698 33.4604C44.6857 33.4968 44.34 33.5453 44.0007 33.5635C41.6194 33.7149 39.7117 35.1146 38.9308 37.3626C38.1882 39.5137 38.8987 41.3194 40.6079 42.7797C42.6116 44.5005 45.0826 44.8398 47.6688 44.7186C48.2897 44.6883 48.9107 44.6096 49.5956 44.5429C49.6469 44.9247 49.7045 45.2094 49.7173 45.4942C49.7749 47.3666 50.6519 48.8511 52.1818 49.9842C54.6976 51.8444 57.5591 52.2261 60.619 51.6626C62.994 51.2263 65.2089 50.4508 67.1741 48.7663C67.4494 49.2934 67.6671 49.7297 67.9103 50.1538C69.4403 52.7775 71.6744 54.3772 74.952 54.2984C76.5395 54.2621 77.9479 53.6925 79.0233 52.5473C80.1436 51.3596 80.6237 49.9963 80.054 48.4148C79.9579 48.1422 79.8875 47.8574 79.8043 47.5726C80.4765 47.4393 81.1038 47.3666 81.6991 47.1908C84.9511 46.2153 86.5643 43.2341 85.4312 40.1863C84.4134 37.4535 82.2433 35.8296 79.4266 34.8965C78.8761 34.7147 78.3127 34.5814 77.7558 34.4239C76.4883 34.5329 75.2272 34.642 73.8765 34.7571C73.6076 32.5455 72.6154 30.7216 70.8166 29.3886C69.9204 28.7221 68.8385 28.2737 67.8399 27.7283C66.5276 27.6617 65.2217 27.2739 63.903 27.698C63.0708 27.9647 62.2258 28.201 61.3872 28.4494C59.9789 29.3219 58.8522 30.4793 57.8664 31.9335C56.2724 29.9036 54.5184 28.3888 52.1306 27.6738L52.1242 27.692ZM57.111 39.6712C57.111 39.6712 57.0726 39.6712 57.0534 39.6712C57.0534 39.4167 57.0662 39.1623 57.0534 38.9078C56.9958 37.7504 56.1828 36.6355 55.2738 36.4477C54.2623 36.2356 53.2317 36.8112 52.5851 37.9565C52.5403 38.0292 52.4891 38.1019 52.4635 38.1867C52.2715 38.8775 52.0794 39.5682 51.9002 40.265C51.8618 40.4287 51.945 40.6407 51.8618 40.768C51.6953 41.0285 51.4521 41.2467 51.2408 41.483C51.0168 41.2648 50.6455 41.0709 50.5879 40.8225C50.1718 39.0471 51.6505 36.1932 53.3533 35.3812C54.6144 34.7814 56.1764 34.9571 57.0854 35.8842C58.4617 37.2899 58.993 39.6228 58.2633 41.6042C58.1736 41.8526 57.7511 42.1677 57.4951 42.1616C57.0662 42.1434 56.8421 41.7859 56.9061 41.3254C56.9894 40.7801 57.0406 40.2348 57.1046 39.6894L57.111 39.6712ZM73.7677 42.3737C73.7677 42.713 73.7805 43.0584 73.7677 43.3977C73.7613 43.5674 73.6909 43.731 73.6397 43.8946C73.4028 44.652 73.0507 44.9913 72.6026 44.8156C71.9561 44.5611 72.2185 44.0521 72.3081 43.6037C72.5386 42.4949 72.5962 41.4103 71.9753 40.3802C71.2071 39.1138 69.7539 38.8411 68.5377 39.75C67.8079 40.2953 67.3534 41.0225 67.0525 41.8465C66.9181 42.2101 66.8413 42.5979 66.6364 42.9251C66.5276 43.1008 66.1883 43.2705 65.9963 43.2341C65.7978 43.2038 65.5418 42.9433 65.4906 42.7433C65.4201 42.4706 65.4841 42.1556 65.5482 41.8708C65.8938 40.4226 66.8285 39.338 68.0448 38.4776C69.2674 37.6111 71.2775 37.8171 72.3978 38.7987C73.518 39.7742 73.8765 40.9982 73.7741 42.3798L73.7677 42.3737Z" fill="white"/>
  <path d="M67.8321 27.7341C68.8308 28.2794 69.9062 28.7278 70.8088 29.3943C72.6076 30.7274 73.5935 32.5512 73.8687 34.7629C75.2195 34.6477 76.4805 34.5387 77.748 34.4296C78.4266 21.3415 72.9277 11.2588 61.1554 4.37545C55.1124 0.842871 48.378 -0.490176 41.3299 0.15817C30.505 1.1519 22.0422 6.04176 15.9864 14.6096C15.8392 14.8217 15.7432 15.0641 15.6215 15.2883C16.0248 15.5488 16.4089 15.8336 16.825 16.0699C18.0605 16.7728 19.1103 17.6574 19.9809 18.7421C20.2178 19.039 20.5059 19.2995 20.7747 19.5783C20.9284 19.3662 21.0692 19.1541 21.2292 18.942C27.2915 10.8286 35.543 7.14455 45.9966 8.27764C52.8846 9.02294 58.4795 12.1556 62.807 17.2697C65.406 20.3478 67.1024 23.8379 67.8385 27.728L67.8321 27.7341Z" fill="#A39ECE"/>
  <path d="M30.0077 24.1591C29.0219 23.9167 28.0424 23.6743 27.159 23.4562C26.4869 22.3231 25.8147 21.1961 25.1425 20.069C23.8558 19.554 22.5691 19.1602 21.2184 19.8994C21.1608 19.9297 20.9368 19.6934 20.7895 19.5843C20.5271 19.3056 20.239 19.045 19.9957 18.7481C19.1251 17.6635 18.0689 16.7728 16.8398 16.076C16.4237 15.8397 16.0396 15.5549 15.6363 15.2943C15.1498 15.2216 14.6569 15.161 14.1768 15.0641C12.7044 14.7672 11.3089 14.9732 10.003 15.6639C7.95453 16.7485 7.16074 18.7299 8.05695 20.778C8.44744 21.6687 9.07479 22.4625 9.70214 23.4683C8.82513 25.377 9.64452 27.0918 11.2833 28.5218C13.1717 30.176 15.4187 30.6728 17.9217 30.1275C18.3122 30.0427 18.6834 29.8972 19.1571 29.7518C19.3172 30.0487 19.4516 30.3517 19.6373 30.6244C20.0982 31.2969 20.4951 32.0422 21.084 32.5997C22.2107 33.6601 23.6126 34.0963 25.1682 33.5328C26.7557 32.9572 27.6135 31.8483 27.5815 30.182C28.0616 30.0487 28.5353 29.9518 28.9834 29.7882C31.0703 29.0368 31.8129 27.219 30.8015 25.3406C30.5774 24.9286 30.2765 24.5529 30.0141 24.1591H30.0077ZM14.9578 20.6144C14.6249 20.2266 14.3432 19.6146 13.8567 19.4025C13.223 19.1238 12.8325 19.76 12.5252 20.2205C12.3139 20.5356 12.2563 20.9537 12.0387 21.2567C11.885 21.4687 11.5586 21.5657 11.3089 21.7172C11.1553 21.4445 10.8672 21.1718 10.8608 20.8992C10.8352 19.8267 12.1347 18.3179 13.2358 18.0755C13.9783 17.9119 14.6633 18.0513 15.2394 18.536C16.4749 19.5782 16.4429 22.414 15.1562 23.4017C14.9642 23.5531 14.5609 23.5713 14.3112 23.4986C14.1832 23.4623 14.1064 23.0563 14.1384 22.8382C14.1832 22.5534 14.3944 22.2989 14.4969 22.0201C14.6441 21.6202 14.7593 21.2143 14.945 20.6265L14.9578 20.6144ZM25.1746 26.0375C25.1105 26.3101 25.0273 26.8555 24.8545 27.3766C24.72 27.7825 24.464 28.2673 23.9327 28.0552C23.7022 27.9643 23.619 27.4311 23.5742 27.0857C23.5422 26.8494 23.7662 26.5889 23.747 26.3465C23.7022 25.7648 23.715 25.1346 23.4654 24.6196C23.0429 23.741 22.1851 23.6501 21.5321 24.3954C21.1416 24.8377 20.9816 25.4497 20.6423 25.9466C20.5015 26.1587 20.1686 26.2495 19.9253 26.395C19.7717 26.1647 19.5092 25.9466 19.49 25.7103C19.3876 24.3893 20.8407 22.7594 22.1979 22.6261C23.5486 22.4867 24.8801 23.6137 25.1233 25.1165C25.1553 25.3285 25.1489 25.5406 25.1746 26.0375Z" fill="white"/>
  <path d="M24.878 40.2649C24.9036 39.356 24.6412 38.5501 24.0586 37.8654C23.1304 36.7808 21.6389 36.7868 20.6979 37.8654C19.648 39.0651 19.6288 41.5676 20.653 42.7734C21.6517 43.9489 23.2649 43.9065 24.1867 42.6583C24.718 41.9372 24.9228 41.1192 24.878 40.2649Z" fill="#A39ECE"/>
  <path d="M11.6685 53.2017C11.6941 52.4624 11.4829 51.7414 10.8939 51.1536C10.113 50.372 9.13353 50.2992 8.24372 50.9536C6.861 51.9716 6.63054 54.4378 7.80202 55.686C8.67262 56.607 9.96572 56.5888 10.8555 55.6314C11.3869 55.0558 11.6813 54.2136 11.6749 53.2017H11.6685Z" fill="#A39ECE"/>
  <path d="M6.96409 30.1468C6.72723 29.4318 6.6056 28.6441 6.22151 28.0078C5.58776 26.9535 4.32027 26.9838 3.56489 27.9654C2.71989 29.0743 2.7519 31.3647 3.62891 32.4493C4.33307 33.3158 5.40852 33.334 6.14469 32.4796C6.72083 31.8131 6.82325 31.0132 6.95769 30.1407L6.96409 30.1468Z" fill="#F7E98E"/>
  <path d="M3.58019 41.6526C3.82345 42.3252 3.92587 42.9735 4.26515 43.4885C4.95651 44.5368 6.21761 44.5732 7.09461 43.6582C8.02283 42.6887 8.06764 40.774 7.19704 39.756C6.37124 38.7986 5.09734 38.7744 4.37397 39.7984C3.99629 40.3316 3.84905 41.0163 3.58659 41.6526H3.58019Z" fill="#A39ECE"/>
  <path d="M13.4123 48.0384C13.6364 48.6746 13.7644 49.3593 14.1037 49.9289C14.7054 50.9408 15.9153 50.9529 16.6515 50.0379C17.4837 48.9957 17.5093 46.8507 16.6899 45.8085C16.0241 44.9602 15.0383 44.9239 14.3021 45.7358C13.8156 46.2751 13.5532 47.0568 13.4123 48.0384Z" fill="#F7E98E"/>
  <path d="M3.67503 48.9169C3.52139 48.3473 3.47017 47.7353 3.20131 47.2263C2.68279 46.2447 1.53692 46.1538 0.762343 46.9658C-0.121063 47.8868 -0.268293 50.1529 0.487084 51.1709C1.06962 51.9586 2.06825 52.0192 2.78522 51.3042C3.45097 50.6438 3.5854 49.8136 3.67503 48.9169Z" fill="#F7E98E"/>
  <path d="M9.03667 64.8917C9.25432 65.5582 9.34394 66.1217 9.6128 66.5883C10.1697 67.5639 11.3028 67.6305 12.0518 66.8004C12.8648 65.8975 12.9352 64.0373 12.1798 63.0981C11.5589 62.3225 10.5026 62.2317 9.90087 63.0254C9.47837 63.5768 9.30553 64.2979 9.03667 64.8917Z" fill="#F7E98E"/>
  <path d="M52.1235 27.6927C54.5113 28.4077 56.2589 29.9165 57.8593 31.9524C58.8451 30.4921 59.9718 29.3408 61.3801 28.4683C60.6567 26.2021 59.5365 24.1359 58.0513 22.2272C52.546 15.1621 42.8222 12.193 34.0009 14.8954C30.5953 15.9376 27.6378 17.6585 25.1348 20.0762C25.807 21.2032 26.4792 22.3302 27.1513 23.4633C28.0347 23.6814 29.0205 23.9238 30 24.1662C34.7307 20.6518 39.9415 20.0216 45.5108 21.9909C48.4875 23.0452 50.76 24.9236 52.1235 27.6988V27.6927Z" fill="#97D8E7"/>
  <path d="M15.8952 36.3689C15.6519 35.6539 15.5239 34.8722 15.1398 34.23C14.4613 33.0969 13.1297 33.0423 12.2079 34.0118C11.1389 35.1388 10.9276 37.7928 11.8046 39.0835C12.6112 40.2771 14.0003 40.3196 14.935 39.1925C15.4663 38.5442 15.7544 37.5686 15.9016 36.3689H15.8952Z" fill="#97D8E7"/>
  <path d="M15.259 59.449C15.4447 60.0913 15.5279 60.7821 15.8416 61.3637C16.3985 62.4181 17.5251 62.509 18.3637 61.6425C19.3816 60.6003 19.5992 58.013 18.767 56.8496C18.1077 55.9225 17.077 55.8498 16.2961 56.692C15.5791 57.4676 15.3806 58.4129 15.259 59.4429V59.449Z" fill="#97D8E7"/>
  <path d="M1.77682 59.4719C1.94966 59.9325 2.07128 60.5808 2.41697 61.0958C3.24276 62.3441 4.82393 62.2653 5.5601 60.9747C6.13623 59.9567 6.07221 58.9145 5.48328 57.9268C5.08638 57.2603 4.49104 56.8119 3.62044 56.9028C2.81385 56.9876 2.35295 57.5087 2.08408 58.1753C1.94325 58.5267 1.90484 58.9145 1.78321 59.4719H1.77682Z" fill="#97D8E7"/>
  <path d="M20.7881 19.5849C20.9353 19.694 21.1594 19.9303 21.217 19.9C22.5741 19.1608 23.8608 19.5546 25.1411 20.0697C27.6441 17.652 30.6016 15.9312 34.0072 14.889C42.822 12.1926 52.5523 15.1556 58.0576 22.2207C59.5427 24.1233 60.663 26.1956 61.3864 28.4618C62.225 28.2134 63.07 27.9771 63.9022 27.7105C65.2209 27.2863 66.5268 27.6741 67.8391 27.7407C67.1029 23.8507 65.4129 20.3545 62.8075 17.2824C58.4801 12.1683 52.8852 9.03567 45.9972 8.29037C35.5435 7.15728 27.2984 10.8413 21.2298 18.9548C21.0762 19.1608 20.9289 19.3789 20.7753 19.591L20.7881 19.5849Z" fill="#F7E98E"/>
  <path d="M57.1121 39.7575C57.0545 40.2604 57.0161 40.7694 56.9265 41.2723C56.8432 41.7329 57.0353 42.1267 57.4642 42.1328C57.7459 42.1328 58.2132 41.7935 58.3028 41.5147C58.9173 39.5697 58.5972 37.7216 57.3105 36.0916C56.3311 34.8555 54.2634 34.6435 52.9511 35.6251C51.2931 36.8612 50.5122 38.5214 50.557 40.521C50.557 40.6907 50.5378 40.8967 50.6338 41.0179C50.781 41.2057 51.0051 41.442 51.2035 41.4481C51.402 41.4481 51.7028 41.236 51.7925 41.0482C51.9141 40.7937 51.8245 40.4543 51.9141 40.1756C52.1958 39.291 52.4134 38.3699 52.8615 37.558C53.3224 36.7279 54.1738 36.2734 55.2365 36.437C56.0238 36.5582 56.9073 37.5519 57.0289 38.479C57.0865 38.8971 57.0353 39.3273 57.0353 39.7515C57.0609 39.7515 57.0865 39.7515 57.1121 39.7515V39.7575Z" fill="#FF66C4"/>
  <path d="M73.7774 42.2941C73.8414 41.0641 73.5726 39.9431 72.6315 39.016C71.1784 37.586 69.0467 37.5497 67.4911 38.9069C66.5373 39.7371 65.846 40.6944 65.5387 41.8881C65.4683 42.1668 65.4171 42.488 65.4939 42.7607C65.5515 42.9606 65.8139 43.209 66.0124 43.2333C66.2108 43.2575 66.5245 43.0818 66.6461 42.9061C66.8318 42.6273 66.851 42.2517 67.0238 41.9608C67.4655 41.2337 67.8432 40.4278 68.4578 39.8582C69.6548 38.7494 71.236 39.0827 72.0298 40.4824C72.5995 41.4821 72.5227 42.5243 72.3179 43.5847C72.2282 44.0271 71.9594 44.53 72.5739 44.8087C73.0412 45.0208 73.4317 44.6451 73.6686 43.815C73.7134 43.6514 73.771 43.4878 73.7774 43.3181C73.7966 42.9788 73.7774 42.6395 73.7774 42.3001V42.2941Z" fill="#FF66C4"/>
  <path d="M14.8618 21.0192C14.6697 21.4919 14.4649 22.0069 14.2536 22.5219C14.1064 22.8855 13.8888 23.2915 14.3689 23.5338C14.8618 23.7823 15.2779 23.4854 15.4891 23.0915C16.1677 21.8372 16.5262 20.5466 15.758 19.1893C15.1755 18.1592 13.9976 17.7048 12.9029 18.1895C11.7635 18.6925 11.1297 19.6135 10.8609 20.7466C10.7584 21.1768 10.8288 21.6555 11.4114 21.7524C11.9299 21.8372 12.0451 21.4373 12.1924 21.0556C12.3524 20.6254 12.5444 20.1709 12.8517 19.8255C13.5047 19.0802 14.1896 19.2075 14.5865 20.1043C14.7081 20.3769 14.7594 20.6738 14.8682 21.0313L14.8618 21.0192Z" fill="#FF66C4"/>
  <path d="M23.7873 26.073C23.7361 26.3094 23.5633 26.7638 23.5569 27.2183C23.5569 27.5091 23.7809 27.806 23.909 28.0969C24.1906 27.9393 24.5875 27.8424 24.7411 27.6061C25.5285 26.4002 25.2213 24.3461 24.1522 23.3342C23.224 22.4556 22.0077 22.3526 20.9899 23.1161C20.1641 23.7342 19.5239 24.4794 19.3831 25.5338C19.3319 25.9094 19.2999 26.2306 19.7224 26.376C20.1897 26.5336 20.5034 26.3154 20.6762 25.9094C20.7594 25.7155 20.8106 25.5035 20.8938 25.3096C21.3035 24.3764 22.0077 23.8614 22.6543 24.0129C23.3584 24.1765 23.7937 24.8854 23.7873 26.0791V26.073Z" fill="#FF66C4"/>
</svg>
